<?xml version="1.0" standalone="no"?>
<!DOCTYPE svg PUBLIC "-//W3C//DTD SVG 20010904//EN"
 "http://www.w3.org/TR/2001/REC-SVG-20010904/DTD/svg10.dtd">
<svg version="1.0" xmlns="http://www.w3.org/2000/svg"
 width="215.000000pt" height="215.000000pt" viewBox="0 0 215.000000 215.000000"
 preserveAspectRatio="xMidYMid meet">
<metadata>
Created by potrace 1.11, written by Peter Selinger 2001-2013
</metadata>
<g transform="translate(0.000000,215.000000) scale(0.100000,-0.100000)"
fill="#000000" stroke="none">
<path d="M576 1925 c-172 -59 -304 -207 -336 -375 -13 -70 -13 -831 0 -901 11
-57 57 -164 81 -189 8 -8 24 -28 36 -43 51 -66 156 -128 258 -152 76 -19 744
-21 827 -4 98 21 174 63 246 136 75 76 114 141 136 227 21 79 22 850 2 941
-25 117 -104 229 -209 299 -121 80 -119 80 -572 83 -399 2 -400 2 -469 -22z"/>
</g>
</svg>
